<?xml version="1.0" encoding="UTF-8"?>
<svg version="1.1" xmlns="http://www.w3.org/2000/svg" width="59" height="65">
<path d="M0 0 C3.77104008 0.50960001 5.52538396 1.12068026 8 4 C9.68536086 6.86511346 11.00254888 9.911982 12.375 12.9375 C13.00897705 14.33125854 13.00897705 14.33125854 13.65576172 15.75317383 C17.92148921 25.39892568 21.54388445 35.27159781 25.125 45.1875 C25.41848328 45.99702118 25.71196655 46.80654236 26.01434326 47.64059448 C26.8522308 49.95987871 27.68191813 52.28188987 28.5078125 54.60546875 C28.76044861 55.30770569 29.01308472 56.00994263 29.27337646 56.73345947 C30.28997486 59.62830342 31 61.90676693 31 65 C22.75 65 14.5 65 6 65 C6.33 62.03 6.66 59.06 7 56 C6.61254072 53.28224556 6.61254072 53.28224556 5.6875 51.0625 C5.42324219 50.33160156 5.15898438 49.60070313 4.88671875 48.84765625 C4.03756376 46.81652986 4.03756376 46.81652986 2 45 C-2.73884562 44.26701309 -6.88648799 44.53778747 -11.3125 46.375 C-15.91643081 50.87186265 -18.64801374 56.71980574 -20 63 C-18.02 63.33 -16.04 63.66 -14 64 C-14 64.33 -14 64.66 -14 65 C-18.29 65 -22.58 65 -27 65 C-25.58354673 61.45886682 -24.17517945 58.41056585 -22.38671875 55.09375 C-17.60294368 45.61045706 -14.33980596 35.49983549 -10.8125 25.5 C-9.4103156 21.52835946 -7.99883924 17.56019359 -6.58203125 13.59375 C-6.26635696 12.68959351 -5.95068268 11.78543701 -5.6254425 10.85388184 C-5.32470322 10.01200317 -5.02396393 9.17012451 -4.71411133 8.30273438 C-4.45463211 7.56615601 -4.19515289 6.82957764 -3.92781067 6.07067871 C-2.89538477 3.76652076 -1.57870046 1.96203466 0 0 Z M-6 22 C-7.00605593 24.60197202 -8.00502525 27.20629362 -9 29.8125 C-9.28617188 30.55048828 -9.57234375 31.28847656 -9.8671875 32.04882812 C-10.13789063 32.76103516 -10.40859375 33.47324219 -10.6875 34.20703125 C-10.93886719 34.8616333 -11.19023437 35.51623535 -11.44921875 36.19067383 C-12.14560906 38.16311143 -12.14560906 38.16311143 -12 41 C-7.38 41 -2.76 41 2 41 C0.29446483 34.50272314 -1.52609365 28.2436684 -4 22 C-4.66 22 -5.32 22 -6 22 Z " fill="#FEFEFE" transform="translate(27,0)"/>
</svg>
